<mxfile host="app.diagrams.net" modified="2023-04-24T13:46:58.765Z" agent="Mozilla/5.0 (Windows NT 10.0; Win64; x64; rv:109.0) Gecko/20100101 Firefox/112.0" version="21.2.1" etag="DPSyQs5o6E8eltjociFL" type="github">
  <diagram name="Page-1" id="0znjg-bUpYiyjdZP1xV-">
    <mxGraphModel>
      <root>
        <mxCell id="0" />
        <mxCell id="1" parent="0" />
      </root>
    </mxGraphModel>
  </diagram>
</mxfile>
